<svg viewBox="0 0 1024 1024" xmlns="http://www.w3.org/2000/svg">
  <path d="M1.827144 981.176313m21.354745 0l977.636222 0q21.354745 0 21.354745 21.354745l0 0.114197q0 21.354745-21.354745 21.354745l-977.636222 0q-21.354745 0-21.354745-21.354745l0-0.114197q0-21.354745 21.354745-21.354745Z" fill="#3A77D9"/>
  <path d="M44.650831 0m0 21.354745l0 977.636222q0 21.354745-21.354745 21.354745l-0.114197 0q-21.354745 0-21.354745-21.354745l0-977.636222q0-21.354745 21.354745-21.354745l0.114197 0q21.354745 0 21.354745 21.354745Z" fill="#3A77D9"/>
  <path d="M432.303425 402.092949m-15.100086 15.100085l-220.122096 220.122097q-15.100085 15.100085-30.20017 0l-0.080749-0.08075q-15.100085-15.100085 0-30.20017l220.122096-220.122096q15.100085-15.100085 30.20017 0l0.080749 0.080749q15.100085 15.100085 0 30.20017Z" fill="#3A77D9"/>
  <path d="M402.03781 371.717901m15.100085 15.100086l220.122097 220.122096q15.100085 15.100085 0 30.20017l-0.080749 0.08075q-15.100085 15.100085-30.200171 0l-220.122096-220.122097q-15.100085-15.100085 0-30.20017l0.080749-0.080749q15.100085-15.100085 30.20017 0Z" fill="#3A77D9"/>
  <path d="M872.344866 402.029735m-15.100085 15.100085l-220.122096 220.122097q-15.100085 15.100085-30.200171 0l-0.080749-0.080749q-15.100085-15.100085 0-30.200171l220.122097-220.122096q15.100085-15.100085 30.20017 0l0.080749 0.080749q15.100085 15.100085 0 30.20017Z" fill="#3A77D9"/>
</svg> 